<svg width="24" height="24" viewBox="0 0 24 24" fill="none" xmlns="http://www.w3.org/2000/svg">
<g clip-path="url(#clip0_101_463)">
<path d="M12.405 5C16.6009 5 21.7138 7.75659 23.5021 11.7301C23.6686 12.1042 23.81 12.5398 23.81 12.9835C23.81 13.426 23.6697 13.8628 23.5021 14.2369C21.7126 18.2104 16.5998 20.967 12.405 20.967C8.21024 20.967 3.09624 18.2104 1.30793 14.2369C1.14142 13.8617 1 13.4272 1 12.9835C1 12.541 1.14028 12.1042 1.30793 11.7301C3.09738 7.75659 8.21024 5 12.405 5ZM12.405 8.4215C11.1951 8.4215 10.0347 8.90214 9.17918 9.75768C8.32364 10.6132 7.843 11.7736 7.843 12.9835C7.843 14.1934 8.32364 15.3538 9.17918 16.2093C10.0347 17.0649 11.1951 17.5455 12.405 17.5455C13.6149 17.5455 14.7753 17.0649 15.6308 16.2093C16.4864 15.3538 16.967 14.1934 16.967 12.9835C16.967 11.7736 16.4864 10.6132 15.6308 9.75768C14.7753 8.90214 13.6149 8.4215 12.405 8.4215ZM12.405 10.7025C13.01 10.7025 13.5901 10.9428 14.0179 11.3706C14.4457 11.7984 14.686 12.3785 14.686 12.9835C14.686 13.5885 14.4457 14.1686 14.0179 14.5964C13.5901 15.0242 13.01 15.2645 12.405 15.2645C11.8 15.2645 11.2199 15.0242 10.7921 14.5964C10.3643 14.1686 10.124 13.5885 10.124 12.9835C10.124 12.3785 10.3643 11.7984 10.7921 11.3706C11.2199 10.9428 11.8 10.7025 12.405 10.7025Z" fill="#111111"/>
</g>
<defs>
<clipPath id="clip0_101_463">
<rect width="24" height="24" fill="white"/>
</clipPath>
</defs>
</svg>