<svg width="32" height="32" viewBox="0 0 32 32" fill="none" xmlns="http://www.w3.org/2000/svg">
<g clip-path="url(#clip0_244_7857)">
<path fill-rule="evenodd" clip-rule="evenodd" d="M22.3132 3.7802C21.8593 3.32598 21.2567 3.05082 20.6162 3.00526C19.9757 2.9597 19.3402 3.1468 18.8266 3.5322L14.9426 6.44553C13.3291 7.65591 11.4366 8.44006 9.4399 8.72553L6.53724 9.13887C5.5639 9.27887 4.85057 10.3269 5.3199 11.3549C5.76124 12.3189 7.16657 14.8602 11.1332 18.9815L5.56257 24.5522C5.43522 24.6752 5.33365 24.8223 5.26377 24.985C5.19389 25.1477 5.15711 25.3226 5.15557 25.4997C5.15403 25.6767 5.18777 25.8523 5.25481 26.0161C5.32185 26.18 5.42085 26.3289 5.54604 26.4541C5.67123 26.5792 5.8201 26.6783 5.98396 26.7453C6.14783 26.8123 6.3234 26.8461 6.50044 26.8445C6.67748 26.843 6.85244 26.8062 7.01511 26.7363C7.17778 26.6665 7.32491 26.5649 7.4479 26.4375L13.0186 20.8669C17.1399 24.8335 19.6812 26.2389 20.6452 26.6802C21.6719 27.1495 22.7212 26.4362 22.8599 25.4629L23.2746 22.5602C23.56 20.5635 24.3442 18.671 25.5546 17.0575L28.4666 13.1735C28.852 12.6599 29.0391 12.0244 28.9935 11.3839C28.9479 10.7434 28.6728 10.1408 28.2186 9.68687L22.3132 3.7802ZM20.4266 5.66687L26.3332 11.5735L23.4212 15.4589C21.9419 17.4308 20.9835 19.7439 20.6346 22.1842L20.4439 23.5189C19.1372 22.6869 16.9732 21.0695 13.9519 18.0482C10.9332 15.0269 9.31457 12.8642 8.48257 11.5575L9.8159 11.3669C12.2567 11.0181 14.5702 10.0597 16.5426 8.5802L20.4266 5.66687Z" fill="black"/>
</g>
<defs>
<clipPath id="clip0_244_7857">
<rect width="32" height="32" fill="white"/>
</clipPath>
</defs>
</svg>
