<svg width="27" height="27" viewBox="0 0 27 27" fill="none" xmlns="http://www.w3.org/2000/svg">
<path d="M1 26.1589L7.94443 19.2145M15.2486 23.202C10.0486 22.0214 5.13749 17.1103 3.95694 11.9104C3.76944 11.0881 3.67638 10.677 3.94721 10.009C4.21666 9.34231 4.5486 9.13398 5.20971 8.72148C6.70415 7.78815 8.32359 7.49093 10.0028 7.63815C12.3597 7.84787 13.5389 7.95204 14.1277 7.6451C14.7152 7.33954 15.1138 6.62288 15.9138 5.19094L16.925 3.37566C17.5916 2.18122 17.925 1.58261 18.7097 1.30067C19.4944 1.01873 19.9666 1.18956 20.9111 1.53122C21.9964 1.92096 22.9821 2.54594 23.7976 3.36138C24.613 4.17682 25.238 5.16253 25.6277 6.24788C25.9694 7.19232 26.1402 7.66454 25.8583 8.44926C25.5763 9.23259 24.9791 9.56593 23.7833 10.234L21.9263 11.2687C20.4958 12.0659 19.7819 12.4659 19.4749 13.059C19.1694 13.6534 19.2805 14.8062 19.5027 17.1117C19.6666 18.8062 19.3847 20.4367 18.4388 21.9506C18.025 22.6117 17.818 22.9423 17.15 23.2131C16.4833 23.4826 16.0722 23.3895 15.2486 23.202Z" stroke="#999999" stroke-width="1.5" stroke-linecap="round" stroke-linejoin="round"/>
</svg>
