<svg width="15" height="15" viewBox="0 0 15 15" fill="none" xmlns="http://www.w3.org/2000/svg">
<path d="M1 14L4.6111 10.3889M8.40926 12.4624C5.70526 11.8485 3.15149 9.29473 2.53761 6.59074C2.44011 6.16319 2.39172 5.94941 2.53255 5.60202C2.67266 5.25536 2.84527 5.14702 3.18905 4.93252C3.96616 4.44719 4.80827 4.29264 5.68143 4.36919C6.90704 4.47825 7.5202 4.53241 7.82643 4.3728C8.13192 4.21392 8.3392 3.84125 8.7552 3.09664L9.28098 2.1527C9.62764 1.53159 9.80098 1.22031 10.209 1.0737C10.6171 0.927091 10.8626 1.01592 11.3537 1.19359C11.9181 1.39625 12.4307 1.72124 12.8547 2.14527C13.2788 2.5693 13.6037 3.08187 13.8064 3.64625C13.9841 4.13736 14.0729 4.38291 13.9263 4.79097C13.7797 5.1983 13.4691 5.37163 12.8473 5.71902L11.8817 6.25708C11.1378 6.67163 10.7666 6.87963 10.607 7.18802C10.4481 7.49713 10.5059 8.09657 10.6214 9.29546C10.7066 10.1766 10.56 11.0245 10.0682 11.8117C9.85298 12.1554 9.74536 12.3273 9.39798 12.4682C9.05131 12.6083 8.83753 12.5599 8.40926 12.4624Z" stroke="#111111" stroke-width="1.5" stroke-linecap="round" stroke-linejoin="round"/>
</svg>
