<svg width="31" height="31" viewBox="0 0 31 31" fill="none" xmlns="http://www.w3.org/2000/svg">
<path fill-rule="evenodd" clip-rule="evenodd" d="M18.4981 3C18.4981 1.34315 17.155 0 15.4981 0C13.8413 0 12.4981 1.34315 12.4981 3V12.524L2.97448 12.605C1.31769 12.6191 -0.0139831 13.9736 0.00011085 15.6304C0.014205 17.2872 1.36873 18.6189 3.02552 18.6048L12.4981 18.5242V27.9972C12.4981 29.6541 13.8413 30.9972 15.4981 30.9972C17.155 30.9972 18.4981 29.6541 18.4981 27.9972V18.4732L28.0218 18.3922C29.6786 18.3781 31.0103 17.0236 30.9962 15.3668C30.9821 13.71 29.6276 12.3783 27.9708 12.3924L18.4981 12.473V3Z" fill="#C22370"/>
</svg>
