<svg width="25" height="25" viewBox="0 0 25 25" fill="none" xmlns="http://www.w3.org/2000/svg">
<path d="M7.14999 18.0779L9.35124 17.4429L22.605 4.03123C22.7095 3.9241 22.7677 3.78016 22.767 3.63048C22.7663 3.48081 22.7068 3.33741 22.6012 3.23127L21.8075 2.42882C21.7562 2.37612 21.6949 2.33416 21.6272 2.3054C21.5595 2.27664 21.4868 2.26164 21.4133 2.26129C21.3397 2.26094 21.2668 2.27525 21.1989 2.30337C21.1309 2.33149 21.0693 2.37286 21.0175 2.42507L7.79874 15.8018L7.14999 18.0779ZM23.3787 0.838914L24.1725 1.64262C25.2675 2.7513 25.2775 4.53995 24.1925 5.63738L10.535 19.4591L5.82999 20.814C5.54274 20.8944 5.23532 20.8576 4.97519 20.7116C4.71507 20.5656 4.52349 20.3224 4.44249 20.0353C4.38222 19.8289 4.38135 19.6097 4.43999 19.4028L5.80874 14.6031L19.43 0.817665C19.689 0.556878 19.9973 0.35027 20.337 0.209891C20.6767 0.0695128 21.041 -0.00182603 21.4085 3.5514e-05C21.7761 0.00189706 22.1396 0.0769218 22.4779 0.220734C22.8161 0.364546 23.1224 0.575517 23.3787 0.838914ZM8.97999 2.28008C9.59999 2.28008 10.1025 2.7888 10.1025 3.41626C10.1035 3.56459 10.0752 3.71166 10.0193 3.84905C9.96343 3.98645 9.881 4.11149 9.77675 4.21701C9.6725 4.32253 9.54847 4.40647 9.41176 4.46403C9.27504 4.52158 9.12832 4.55163 8.97999 4.55245H4.48999C3.24999 4.55245 2.245 5.56989 2.245 6.82356V20.4553C2.245 21.7102 3.24999 22.7276 4.48999 22.7276H17.96C19.2 22.7276 20.2062 21.7102 20.2062 20.4553V15.9118C20.2062 15.2843 20.7087 14.7756 21.3287 14.7756C21.9487 14.7756 22.4512 15.2843 22.4512 15.913V20.4553C22.4512 22.9651 20.44 25 17.96 25H4.48999C2.01 25 0 22.9651 0 20.4553V6.82356C0 4.31496 2.01 2.28008 4.48999 2.28008H8.97999Z" fill="#555555"/>
</svg>
