<svg width="26" height="26" viewBox="0 0 26 26" fill="none" xmlns="http://www.w3.org/2000/svg">
<path d="M13 17.875C10.3188 17.875 8.125 15.6813 8.125 13C8.125 10.3188 10.3188 8.125 13 8.125C15.6813 8.125 17.875 10.3188 17.875 13C17.875 15.6813 15.6813 17.875 13 17.875ZM13 9.75C11.2125 9.75 9.75 11.2125 9.75 13C9.75 14.7875 11.2125 16.25 13 16.25C14.7875 16.25 16.25 14.7875 16.25 13C16.25 11.2125 14.7875 9.75 13 9.75Z" fill="#999999"/>
<path d="M13 21.125C7.81625 21.125 3.26625 17.9725 1.67375 13.26C1.60849 13.0928 1.60849 12.9072 1.67375 12.74C3.26625 8.04375 7.8325 4.875 13 4.875C18.1675 4.875 22.7338 8.0275 24.3263 12.74C24.3913 12.9025 24.3913 13.0975 24.3263 13.26C22.7338 17.9563 18.1675 21.125 13 21.125ZM3.29875 13C4.745 16.9 8.6125 19.5 13 19.5C17.3875 19.5 21.2388 16.9 22.7013 13C21.255 9.1 17.3875 6.5 13 6.5C8.6125 6.5 4.76125 9.1 3.29875 13Z" fill="#999999"/>
<path d="M22.75 23.5625C22.6434 23.5638 22.5378 23.5428 22.4398 23.5008C22.3419 23.4588 22.2538 23.3968 22.1812 23.3188L2.68125 3.81876C2.35625 3.49376 2.35625 2.99001 2.68125 2.66501C3.00625 2.34001 3.51 2.34001 3.835 2.66501L23.3188 22.1813C23.6438 22.5063 23.6438 23.01 23.3188 23.335C23.1562 23.4975 22.945 23.5788 22.75 23.5788V23.5625Z" fill="#999999"/>
</svg>
