<svg width="20" height="20" viewBox="0 0 20 20" fill="none" xmlns="http://www.w3.org/2000/svg">
<path d="M13.9459 2.36256C13.6622 2.07868 13.2856 1.9067 12.8852 1.87823C12.4849 1.84975 12.0877 1.96669 11.7667 2.20756L9.3392 4.0284C8.33078 4.78488 7.14796 5.27498 5.90003 5.4534L4.08586 5.71173C3.47753 5.79923 3.0317 6.45423 3.32503 7.09673C3.60086 7.69923 4.4792 9.28756 6.95836 11.8634L3.4767 15.3451C3.39711 15.4219 3.33362 15.5139 3.28995 15.6156C3.24627 15.7172 3.22328 15.8266 3.22232 15.9372C3.22136 16.0479 3.24244 16.1576 3.28435 16.26C3.32625 16.3624 3.38812 16.4555 3.46637 16.5337C3.54461 16.612 3.63766 16.6738 3.74007 16.7157C3.84248 16.7576 3.95222 16.7787 4.06286 16.7778C4.17351 16.7768 4.28286 16.7538 4.38453 16.7101C4.4862 16.6665 4.57816 16.603 4.65503 16.5234L8.1367 13.0417C10.7125 15.5209 12.3009 16.3992 12.9034 16.6751C13.545 16.9684 14.2009 16.5226 14.2875 15.9142L14.5467 14.1001C14.7251 12.8521 15.2152 11.6693 15.9717 10.6609L17.7917 8.2334C18.0326 7.91237 18.1495 7.51521 18.121 7.11488C18.0926 6.71454 17.9206 6.33793 17.6367 6.05423L13.9459 2.36256Z" fill="black"/>
</svg>
