<svg width="36" height="36" viewBox="0 0 36 36" fill="none" xmlns="http://www.w3.org/2000/svg">
<circle cx="19.5" cy="19.5" r="16.4" fill="#C22370" stroke="#999999" stroke-width="0.2"/>
<path d="M14.8061 25.985C17.1247 28.3036 20.1382 28.9982 21.6197 29.1407C22.055 29.1907 22.2979 28.9228 22.3311 28.6468C22.3647 28.3539 22.1804 28.0357 21.7622 27.9771C20.4229 27.7928 17.6522 27.1903 15.6432 25.1564C12.3618 21.8668 11.7425 16.8946 14.4211 14.2161C16.5975 12.0482 20.2218 12.3243 22.8922 13.7639L23.7625 12.9186C20.5147 10.9682 16.1454 10.8093 13.5839 13.3789C10.5372 16.4343 10.9389 22.1178 14.8061 25.985ZM27.0775 14.1239L27.7468 13.4543C28.0647 13.1364 28.0818 12.6675 27.7554 12.3661L27.5375 12.1653C27.2532 11.8975 26.8093 11.9057 26.4997 12.1986L25.8386 12.8768L27.0775 14.1239ZM18.9497 22.2346L26.4661 14.7264L25.2189 13.4878L17.7107 20.9878L17.0161 22.5864C16.9489 22.7621 17.1247 22.9382 17.3089 22.8793L18.9497 22.2346ZM17.8532 23.4821C20.59 26.2193 24.9929 27.2993 27.4539 24.8464C29.4629 22.8293 29.2032 19.2464 27.0522 16.1664L26.1986 17.02C27.9057 19.5478 28.2407 22.3857 26.6168 24.0093C24.6418 25.985 21.3768 25.0475 19.1336 22.9296L17.8532 23.4821Z" fill="white"/>
</svg>
