<svg width="20" height="21" viewBox="0 0 20 21" fill="none" xmlns="http://www.w3.org/2000/svg">
<path d="M19.8458 19.756C19.9445 19.8547 20 19.9887 20 20.1283C20 20.268 19.9445 20.4019 19.8458 20.5007C19.747 20.5994 19.6131 20.6549 19.4734 20.6549C19.3337 20.6549 19.1998 20.5994 19.101 20.5007L10 11.3996L0.898951 20.5007C0.800195 20.5994 0.666254 20.6549 0.526593 20.6549C0.386932 20.6549 0.252991 20.5994 0.154236 20.5007C0.0554804 20.4019 2.75305e-09 20.268 0 20.1283C-2.75305e-09 19.9887 0.0554799 19.8547 0.154235 19.756L9.25528 10.6549L0.154235 1.55386C0.0554799 1.4551 0 1.32116 0 1.1815C0 1.04184 0.0554799 0.907898 0.154235 0.809142C0.252991 0.710387 0.386932 0.654907 0.526593 0.654907C0.666254 0.654907 0.800195 0.710387 0.898951 0.809142L10 9.91019L19.101 0.809142C19.1499 0.760244 19.208 0.721455 19.2719 0.694991C19.3358 0.668528 19.4043 0.654907 19.4734 0.654907C19.5426 0.654907 19.611 0.668528 19.6749 0.694991C19.7388 0.721455 19.7969 0.760244 19.8458 0.809142C19.8947 0.858041 19.9335 0.916092 19.9599 0.979982C19.9864 1.04387 20 1.11235 20 1.1815C20 1.25065 19.9864 1.31913 19.9599 1.38302C19.9335 1.44691 19.8947 1.50496 19.8458 1.55386L10.7447 10.6549L19.8458 19.756Z" fill="#555555"/>
</svg>
